<svg xmlns="http://www.w3.org/2000/svg" version="1.1" xmlns:xlink="http://www.w3.org/1999/xlink" xmlns:svgjs="http://svgjs.com/svgjs" width="1440" height="560" preserveAspectRatio="none" viewBox="0 0 1440 560">
    <g mask="url(&quot;#SvgjsMask1640&quot;)" fill="none">
        <rect width="1440" height="560" x="0" y="0" fill="rgba(255, 255, 255, 1)"></rect>
        <use xlink:href="#SvgjsG1643" transform="translate(0, 0)" fill="#0f457b"></use>
    </g>
    <defs>
        <mask id="SvgjsMask1640">
            <rect width="1440" height="560" fill="#ffffff"></rect>
        </mask>
        <g id="SvgjsG1641">
            <path d="M15.964 4.774l-1.312 10.327H10.223L8.916 4.774h5.408L15.395 1.04 16 1.21l-1.024 3.562 0.988 0.002zM8.29 10.788s0.166-1.502-2.131-1.502H2.5c-2.293 0-2.131 1.502-2.132 1.502h7.922zM0.368 13.595s-0.162 1.506 2.132 1.506h3.659c2.297 0 2.131-1.506 2.131-1.506H0.369z m7.578-0.727a0.68 0.68 0 0 0 0.68-0.68c0-0.372-0.304-0.676-0.68-0.676H0.68C0.306 11.512 0 11.816 0 12.188a0.682 0.682 0 0 0 0.68 0.68h7.266z"></path>
        </g>
        <g id="SvgjsG1642">
            <path d="M7.741 5.269c-0.003 0.523-0.481 1.084-1.101 1.084v8.856c0 1.261-1.714 1.261-1.716 0V6.354c-0.602 0-1.127-0.465-1.126-1.159V0.315c-0.001-0.423 0.612-0.44 0.616 0.017v3.606h0.51V0.299c0-0.389 0.59-0.414 0.591 0.016v3.623h0.526V0.307C6.044-0.103 6.618-0.12 6.616 0.323v3.615h0.526V0.307c-0.002-0.406 0.597-0.423 0.599 0.016v4.946zM12.309 1.449v13.76c0.002 1.229-1.715 1.211-1.717 0V9.746h-0.912V1.449c-0.001-1.932 2.631-1.932 2.629 0z"></path>
        </g>
        <g id="SvgjsG1643">
            <use xlink:href="#SvgjsG1641" transform="translate(0, 0) scale(3)" fill="#0f457b"></use>
            <use xlink:href="#SvgjsG1642" transform="translate(0, 192) scale(3)" fill="#0f457b"></use>
            <use xlink:href="#SvgjsG1642" transform="translate(0, 384) scale(3)" fill="#0f457b"></use>
            <use xlink:href="#SvgjsG1642" transform="translate(192, 0) scale(3)" fill="#0f457b"></use>
            <use xlink:href="#SvgjsG1642" transform="translate(192, 192) scale(3)" fill="#0f457b"></use>
            <use xlink:href="#SvgjsG1641" transform="translate(192, 384) scale(3)" fill="#0f457b"></use>
            <use xlink:href="#SvgjsG1641" transform="translate(384, 0) scale(3)" fill="#0f457b"></use>
            <use xlink:href="#SvgjsG1642" transform="translate(384, 192) scale(3)" fill="#0f457b"></use>
            <use xlink:href="#SvgjsG1642" transform="translate(384, 384) scale(3)" fill="#0f457b"></use>
            <use xlink:href="#SvgjsG1642" transform="translate(576, 0) scale(3)" fill="#0f457b"></use>
            <use xlink:href="#SvgjsG1641" transform="translate(576, 192) scale(3)" fill="#0f457b"></use>
            <use xlink:href="#SvgjsG1641" transform="translate(576, 384) scale(3)" fill="#0f457b"></use>
            <use xlink:href="#SvgjsG1641" transform="translate(768, 0) scale(3)" fill="#0f457b"></use>
            <use xlink:href="#SvgjsG1642" transform="translate(768, 192) scale(3)" fill="#0f457b"></use>
            <use xlink:href="#SvgjsG1641" transform="translate(768, 384) scale(3)" fill="#0f457b"></use>
            <use xlink:href="#SvgjsG1641" transform="translate(960, 0) scale(3)" fill="#0f457b"></use>
            <use xlink:href="#SvgjsG1642" transform="translate(960, 192) scale(3)" fill="#0f457b"></use>
            <use xlink:href="#SvgjsG1641" transform="translate(960, 384) scale(3)" fill="#0f457b"></use>
            <use xlink:href="#SvgjsG1642" transform="translate(1152, 0) scale(3)" fill="#0f457b"></use>
            <use xlink:href="#SvgjsG1642" transform="translate(1152, 192) scale(3)" fill="#0f457b"></use>
            <use xlink:href="#SvgjsG1642" transform="translate(1152, 384) scale(3)" fill="#0f457b"></use>
            <use xlink:href="#SvgjsG1642" transform="translate(1344, 0) scale(3)" fill="#0f457b"></use>
            <use xlink:href="#SvgjsG1642" transform="translate(1344, 192) scale(3)" fill="#0f457b"></use>
            <use xlink:href="#SvgjsG1641" transform="translate(1344, 384) scale(3)" fill="#0f457b"></use>
        </g>
    </defs>
</svg>